<?xml version="1.0" encoding="UTF-8"?>
<svg version="1.1" xmlns="http://www.w3.org/2000/svg" width="227" height="226">
<path d="M0 0 C16.044699 -0.24421958 32.44410117 2.78003584 45.74511719 12.05981445 C47.04749051 12.54617793 48.36124332 13.00273022 49.68261719 13.43481445 C53.58160013 14.78417566 56.1389569 16.82869554 59.10449219 19.6574707 C60.69406549 21.14500649 60.69406549 21.14500649 62.72167969 21.9699707 C65.33204298 23.37593858 66.57800139 25.07837282 68.37011719 27.43481445 C70.58098373 30.31140661 72.79352029 33.11421032 75.20605469 35.82543945 C84.57329844 46.37439704 93.1335666 60.57045363 94.52978516 74.90356445 C94.77268358 77.3358534 95.12913573 79.73738425 95.49902344 82.15356445 C95.63115234 83.03915039 95.76328125 83.92473633 95.89941406 84.8371582 C96.17163596 86.65283917 96.44768129 88.467951 96.72753906 90.2824707 C97.82297268 97.69688348 98.41612709 104.26215386 96.28417969 111.56762695 C95.65201982 114.19568062 95.65201982 114.19568062 95.51855469 117.48950195 C94.39058614 133.76447677 85.65312779 146.46358393 75.74511719 159.05981445 C75.07996094 160.00856445 74.41480469 160.95731445 73.72949219 161.93481445 C61.80769718 177.94170006 38.91967486 190.84081446 19.31152344 194.66918945 C12.25828151 195.44172417 5.21810331 195.35308217 -1.86572266 195.13354492 C-4.00230842 195.067609 -6.13712054 195.03202367 -8.27441406 195.0012207 C-21.43455684 194.53872367 -40.78040796 190.80507225 -50.81738281 181.74731445 C-52.02394531 180.41700195 -52.02394531 180.41700195 -53.25488281 179.05981445 C-54.90451575 177.84876317 -56.57396359 176.66455248 -58.25488281 175.49731445 C-70.15729322 166.91538781 -79.0327339 157.85066134 -86.25488281 145.05981445 C-86.71765625 144.2502832 -87.18042969 143.44075195 -87.65722656 142.60668945 C-89.72775028 138.74564166 -90.55639093 135.33807721 -91.25488281 131.05981445 C-92.73382116 127.30509598 -94.45074307 123.66809394 -96.25488281 120.05981445 C-96.72255372 114.61520132 -96.93565826 109.16441168 -97.14208984 103.7043457 C-97.24781201 101.22559566 -97.4023129 98.75420309 -97.56347656 96.27856445 C-98.19732049 83.64535372 -95.12709278 73.62397545 -90.25488281 62.05981445 C-89.95018066 61.29330566 -89.64547852 60.52679688 -89.33154297 59.73706055 C-85.10836475 49.14592471 -79.81152526 41.63011469 -71.75439453 33.63354492 C-70.25715812 32.06220238 -68.92663673 30.43875612 -67.60253906 28.7199707 C-57.86277389 16.08122547 -45.35307149 9.00545104 -30.25488281 4.05981445 C-29.57989746 3.80594971 -28.90491211 3.55208496 -28.20947266 3.29052734 C-22.66004413 1.26710916 -17.64085648 0.54034796 -11.75488281 0.37231445 C-10.56958984 0.32107422 -10.56958984 0.32107422 -9.36035156 0.26879883 C-6.24084389 0.14371219 -3.12079248 0.08278412 0 0 Z " fill="#0E1C15" transform="translate(119.2548828125,14.940185546875)"/>
<path d="M0 0 C1.00804687 0.31195312 2.01609375 0.62390625 3.0546875 0.9453125 C25.85287906 8.63082184 44.5271024 25.4478155 55.41015625 46.76171875 C57.64913368 52.04842972 59.00573271 57.55436591 60.2890625 63.140625 C60.9270599 66.00183421 60.9270599 66.00183421 62.0703125 68.609375 C63.47183457 73.72080844 63.28821827 78.72587905 63.25 84 C63.25773438 85.06734375 63.26546875 86.1346875 63.2734375 87.234375 C63.26009661 92.59741146 63.0179165 96.96291072 61 102 C60.73788562 103.61719629 60.52332474 105.24342789 60.375 106.875 C60.30023438 107.65617187 60.22546875 108.43734375 60.1484375 109.2421875 C60.07496094 110.11230469 60.07496094 110.11230469 60 111 C59.34 111 58.68 111 58 111 C57.87882813 111.59167969 57.75765625 112.18335938 57.6328125 112.79296875 C56.73255357 117.03803585 55.79543379 121.02439661 54 125 C53.34 125 52.68 125 52 125 C51.74347656 125.88171875 51.48695313 126.7634375 51.22265625 127.671875 C46.48757651 140.56097385 34.4035752 151.88220554 23 159 C21.67742187 159.83724609 21.67742187 159.83724609 20.328125 160.69140625 C18 162 18 162 16 162 C16 162.66 16 163.32 16 164 C13.09399739 165.25664978 11.20395416 166 8 166 C7.90203125 165.20335937 7.8040625 164.40671875 7.703125 163.5859375 C6.63362684 156.00725223 5.46345909 151.46345909 0 146 C-2.27954055 135.82295444 -2.21759613 125.21648367 3 116 C5.51936377 113.48063623 6.66514189 113.64483055 10.1640625 113.359375 C11.20433594 113.25753906 12.24460937 113.15570313 13.31640625 113.05078125 C15.49752228 112.85249797 17.67987216 112.66728988 19.86328125 112.49609375 C26.32998754 111.8359011 30.42413347 110.76104147 35.29443359 106.34863281 C37.18831302 104.85109631 38.64415014 104.41683895 41 104 C41.18175781 103.32195312 41.36351562 102.64390625 41.55078125 101.9453125 C43.05874641 96.36197485 44.63383471 90.8116497 46.3515625 85.2890625 C47.97075261 79.57312633 48.15186392 74.28506218 48.125 68.375 C48.12886719 67.51648438 48.13273438 66.65796875 48.13671875 65.7734375 C48.13542969 64.9484375 48.13414062 64.1234375 48.1328125 63.2734375 C48.13112061 62.15074463 48.13112061 62.15074463 48.12939453 61.00537109 C48.07197557 58.79178382 48.07197557 58.79178382 47 56 C45.16715557 54.87483915 45.16715557 54.87483915 43 54 C42.18015625 53.46439453 42.18015625 53.46439453 41.34375 52.91796875 C37.96951669 51.59639404 34.84294656 52.05979584 31.3125 52.375 C29.78529229 52.47348689 28.25794166 52.56977801 26.73046875 52.6640625 C24.38837149 52.81946232 22.05629728 52.99423396 19.72119141 53.23339844 C7.1571604 54.51370424 7.1571604 54.51370424 1.8046875 50.7578125 C-1.01528677 48.03344678 -3.46077645 44.98369056 -6 42 C-11.69870967 37.2622869 -18.05990846 34.4630805 -25 32 C-25 31.34 -25 30.68 -25 30 C-28.35593441 30.25121025 -31.70910677 30.52952263 -35.0625 30.8125 C-36.00544922 30.88275391 -36.94839844 30.95300781 -37.91992188 31.02539062 C-43.6033841 31.52046573 -47.90684011 32.42563918 -53 35 C-54.0828125 35.52078125 -55.165625 36.0415625 -56.28125 36.578125 C-62.91766542 40.02519515 -68.08681649 43.3751576 -73 49 C-73.804375 49.763125 -74.60875 50.52625 -75.4375 51.3125 C-81.68283608 57.86248662 -86.48943497 64.38858157 -90.375 72.5625 C-90.70862549 73.25827148 -91.04225098 73.95404297 -91.38598633 74.67089844 C-95.09458384 82.80293493 -96.34877863 90.60447927 -96.3125 99.5 C-96.32861328 100.29019531 -96.34472656 101.08039063 -96.36132812 101.89453125 C-96.36829492 110.40795541 -93.82932572 117.15330596 -89.375 124.375 C-87.58842151 127.29232436 -86.08226504 129.75320487 -85 133 C-89.47837755 134.79135102 -94.25338325 136.55378273 -99 135 C-105.02525742 128.87996324 -107.72351993 120.12774724 -110.30859375 112.12890625 C-110.88096816 110.36651046 -111.49734895 108.61847514 -112.125 106.875 C-118.55971755 85.73235662 -114.05818842 61.28555498 -104.2734375 42.0546875 C-100.89246341 35.79351463 -96.65285161 30.35828395 -92 25 C-91.36578125 24.26523437 -90.7315625 23.53046875 -90.078125 22.7734375 C-67.39137695 -1.5614931 -31.3011219 -9.80272716 0 0 Z " fill="#E5F7EE" transform="translate(145,28)"/>
<path d="M0 0 C11.02605243 -0.46469953 18.38286389 3.09630542 26.7421875 10.08203125 C29.5529759 12.70796173 31.97313683 15.51741118 34.29296875 18.58203125 C39.66243405 23.6426335 47.92019764 22.59661657 54.80273438 22.63671875 C60.31205759 22.78550767 62.90731115 23.35885033 67.05859375 27.24609375 C69.69521147 28.33528823 69.69521147 28.33528823 72.37109375 28.99609375 C73.69560547 29.35960937 73.69560547 29.35960937 75.046875 29.73046875 C75.71074219 29.900625 76.37460938 30.07078125 77.05859375 30.24609375 C76.61016275 37.51376861 76.08057377 45.80259023 71.87109375 51.9921875 C69.15088214 53.87405803 66.70059722 53.73345946 63.43359375 53.87109375 C59.42783614 53.69662394 59.42783614 53.69662394 56.05859375 55.24609375 C55.64142096 57.66147213 55.64142096 57.66147213 56.05859375 60.24609375 C58.02384213 61.91945562 58.02384213 61.91945562 60.05859375 63.24609375 C59.4538623 63.31602539 58.84913086 63.38595703 58.22607422 63.45800781 C55.45965035 63.78745749 52.69690792 64.14154153 49.93359375 64.49609375 C48.50660156 64.66044922 48.50660156 64.66044922 47.05078125 64.828125 C41.34134927 65.58145283 37.46322604 66.45046207 33.05859375 70.24609375 C27.95858408 79.71754029 27.5775414 89.75788851 27.05859375 100.24609375 C23.11620297 99.65862798 20.30315944 98.43605453 16.87109375 96.43359375 C13.38150479 94.46546558 10.00463862 92.75418864 6.24609375 91.37109375 C-0.55887617 88.79861724 -6.70472382 84.94856228 -12.94140625 81.24609375 C-12.3229655 77.71214662 -10.90075331 75.58959979 -8.75390625 72.74609375 C-2.18888464 63.61449991 3.35840439 53.62758756 3.30859375 42.18359375 C3.31375 40.99636719 3.31890625 39.80914062 3.32421875 38.5859375 C2.97400429 34.18250574 1.91269754 31.36526423 -0.75390625 27.87109375 C-2.85854148 25.93053275 -2.85854148 25.93053275 -5.69140625 26.49609375 C-6.43390625 26.74359375 -7.17640625 26.99109375 -7.94140625 27.24609375 C-8.25706383 31.64802957 -8.25706383 31.64802957 -6.44140625 35.55859375 C-3.68368674 40.49950787 -4.44261123 45.99272365 -5.94140625 51.30859375 C-6.27140625 52.27796875 -6.60140625 53.24734375 -6.94140625 54.24609375 C-7.60140625 54.24609375 -8.26140625 54.24609375 -8.94140625 54.24609375 C-9.16828125 55.07109375 -9.39515625 55.89609375 -9.62890625 56.74609375 C-13.57660359 67.27328666 -21.78231371 77.76771122 -30.94140625 84.24609375 C-31.60140625 84.24609375 -32.26140625 84.24609375 -32.94140625 84.24609375 C-33.27140625 85.23609375 -33.60140625 86.22609375 -33.94140625 87.24609375 C-36.56640625 87.74609375 -36.56640625 87.74609375 -39.94140625 87.24609375 C-46.84490487 80.90096634 -50.42891222 71.24163721 -51.09765625 62.11328125 C-51.79877059 43.94273458 -43.38284059 29.69293874 -31.59375 16.6484375 C-22.2556999 6.83682543 -13.52920004 1.1319251 0 0 Z " fill="#E4F6ED" transform="translate(107.94140625,67.75390625)"/>
<path d="M0 0 C1.00804687 0.31195312 2.01609375 0.62390625 3.0546875 0.9453125 C25.85287906 8.63082184 44.5271024 25.4478155 55.41015625 46.76171875 C57.64913368 52.04842972 59.00573271 57.55436591 60.2890625 63.140625 C60.9270599 66.00183421 60.9270599 66.00183421 62.0703125 68.609375 C63.47183457 73.72080844 63.28821827 78.72587905 63.25 84 C63.25773438 85.06734375 63.26546875 86.1346875 63.2734375 87.234375 C63.26009661 92.59741146 63.0179165 96.96291072 61 102 C60.73788562 103.61719629 60.52332474 105.24342789 60.375 106.875 C60.30023438 107.65617187 60.22546875 108.43734375 60.1484375 109.2421875 C60.07496094 110.11230469 60.07496094 110.11230469 60 111 C59.34 111 58.68 111 58 111 C57.87882813 111.59167969 57.75765625 112.18335938 57.6328125 112.79296875 C56.73255357 117.03803585 55.79543379 121.02439661 54 125 C53.34 125 52.68 125 52 125 C51.74347656 125.88171875 51.48695313 126.7634375 51.22265625 127.671875 C46.48757651 140.56097385 34.4035752 151.88220554 23 159 C22.11828125 159.55816406 21.2365625 160.11632812 20.328125 160.69140625 C18 162 18 162 16 162 C16 162.66 16 163.32 16 164 C13.09399739 165.25664978 11.20395416 166 8 166 C7.90203125 165.20335937 7.8040625 164.40671875 7.703125 163.5859375 C6.63362684 156.00725223 5.46345909 151.46345909 0 146 C-2.27954055 135.82295444 -2.21759613 125.21648367 3 116 C5.51936377 113.48063623 6.66514189 113.64483055 10.1640625 113.359375 C11.20433594 113.25753906 12.24460937 113.15570313 13.31640625 113.05078125 C15.49752228 112.85249797 17.67987216 112.66728988 19.86328125 112.49609375 C26.32998754 111.8359011 30.42413347 110.76104147 35.29443359 106.34863281 C37.18831302 104.85109631 38.64415014 104.41683895 41 104 C41.18175781 103.32195312 41.36351562 102.64390625 41.55078125 101.9453125 C43.05874641 96.36197485 44.63383471 90.8116497 46.3515625 85.2890625 C47.97075261 79.57312633 48.15186392 74.28506218 48.125 68.375 C48.12886719 67.51648438 48.13273438 66.65796875 48.13671875 65.7734375 C48.13542969 64.9484375 48.13414062 64.1234375 48.1328125 63.2734375 C48.13112061 62.15074463 48.13112061 62.15074463 48.12939453 61.00537109 C48.07197557 58.79178382 48.07197557 58.79178382 47 56 C45.16715557 54.87483915 45.16715557 54.87483915 43 54 C41.66666667 53.33333333 40.33333333 52.66666667 39 52 C39.66 51.67 40.32 51.34 41 51 C43.03144641 51.93446535 45.03533587 52.93224776 47 54 C47 52.68 47 51.36 47 50 C46.34 50 45.68 50 45 50 C44.67 49.05125 44.34 48.1025 44 47.125 C38.71936174 34.88576366 27.10706562 24.84586435 16 18 C15.05640625 17.3503125 14.1128125 16.700625 13.140625 16.03125 C-3.79302203 4.74215198 -25.07444146 1.49168695 -45.1015625 4.53125 C-51.85884948 5.88565175 -57.84474989 7.95135447 -64 11 C-65.49898835 11.62742244 -66.99900826 12.25238552 -68.5 12.875 C-77.67769322 17.03513083 -83.95347654 22.71199471 -90.51953125 30.1953125 C-94.94481935 35.19902409 -94.94481935 35.19902409 -97 37 C-97.99 37 -98.98 37 -100 37 C-93.47104649 22.89109071 -78.43484399 10.2568741 -64.375 3.86328125 C-42.75275537 -3.99612017 -22.21941302 -6.95856347 0 0 Z " fill="#E3F6ED" transform="translate(145,28)"/>
<path d="M0 0 C1.00804687 0.31195312 2.01609375 0.62390625 3.0546875 0.9453125 C25.85287906 8.63082184 44.5271024 25.4478155 55.41015625 46.76171875 C57.64913368 52.04842972 59.00573271 57.55436591 60.2890625 63.140625 C60.9270599 66.00183421 60.9270599 66.00183421 62.0703125 68.609375 C63.47183457 73.72080844 63.28821827 78.72587905 63.25 84 C63.25773438 85.06734375 63.26546875 86.1346875 63.2734375 87.234375 C63.26009661 92.59741146 63.0179165 96.96291072 61 102 C60.73788562 103.61719629 60.52332474 105.24342789 60.375 106.875 C60.30023438 107.65617187 60.22546875 108.43734375 60.1484375 109.2421875 C60.07496094 110.11230469 60.07496094 110.11230469 60 111 C59.34 111 58.68 111 58 111 C57.87882813 111.59167969 57.75765625 112.18335938 57.6328125 112.79296875 C56.73255357 117.03803585 55.79543379 121.02439661 54 125 C53.34 125 52.68 125 52 125 C51.74347656 125.88171875 51.48695313 126.7634375 51.22265625 127.671875 C47.45293461 137.93322593 37.59956714 149.75470237 28 155 C28.33 153.68 28.66 152.36 29 151 C29.99 151 30.98 151 32 151 C32 150.01 32 149.02 32 148 C32.99 148 33.98 148 35 148 C35.09023437 147.44054687 35.18046875 146.88109375 35.2734375 146.3046875 C36.19854735 143.37019926 37.72243103 141.5417768 39.625 139.125 C47.17509855 128.93168921 51.84063288 118.49110827 54 106 C54.27457031 104.65808594 54.27457031 104.65808594 54.5546875 103.2890625 C56.21518597 91.02467905 56.12811806 77.74267781 52 66 C51.67 65.01 51.34 64.02 51 63 C50.67 68.94 50.34 74.88 50 81 C49.01 81.495 49.01 81.495 48 82 C48.00523682 81.31897217 48.01047363 80.63794434 48.01586914 79.9362793 C48.03664458 76.85336223 48.04966198 73.7704599 48.0625 70.6875 C48.07087891 69.61564453 48.07925781 68.54378906 48.08789062 67.43945312 C48.09111328 66.41142578 48.09433594 65.38339844 48.09765625 64.32421875 C48.10289307 63.37635498 48.10812988 62.42849121 48.11352539 61.4519043 C48.10498854 58.86161319 48.10498854 58.86161319 47 56 C45.16715557 54.87483915 45.16715557 54.87483915 43 54 C41.66666667 53.33333333 40.33333333 52.66666667 39 52 C39.66 51.67 40.32 51.34 41 51 C43.03144641 51.93446535 45.03533587 52.93224776 47 54 C47 52.68 47 51.36 47 50 C46.34 50 45.68 50 45 50 C44.67 49.05125 44.34 48.1025 44 47.125 C38.71936174 34.88576366 27.10706562 24.84586435 16 18 C15.05640625 17.3503125 14.1128125 16.700625 13.140625 16.03125 C-3.79302203 4.74215198 -25.07444146 1.49168695 -45.1015625 4.53125 C-51.85884948 5.88565175 -57.84474989 7.95135447 -64 11 C-65.49898835 11.62742244 -66.99900826 12.25238552 -68.5 12.875 C-77.67769322 17.03513083 -83.95347654 22.71199471 -90.51953125 30.1953125 C-94.94481935 35.19902409 -94.94481935 35.19902409 -97 37 C-97.99 37 -98.98 37 -100 37 C-93.47104649 22.89109071 -78.43484399 10.2568741 -64.375 3.86328125 C-42.75275537 -3.99612017 -22.21941302 -6.95856347 0 0 Z " fill="#BFEAD4" transform="translate(145,28)"/>
<path d="M0 0 C1.36733028 0.95298777 2.70264493 1.95374591 4 3 C6.14733927 3.70514846 6.14733927 3.70514846 8 4 C8 4.66 8 5.32 8 6 C10.97 6.99 13.94 7.98 17 9 C17 9.66 17 10.32 17 11 C17.86625 11.2475 18.7325 11.495 19.625 11.75 C23.18792868 13.06960322 25.86138767 14.88484821 29 17 C31.22602615 17.76939681 31.22602615 17.76939681 33 18 C33 18.66 33 19.32 33 20 C33.78375 20.20625 34.5675 20.4125 35.375 20.625 C39.46947281 22.17807589 42.92628749 24.25313863 46.6328125 26.5625 C48.90577531 28.04905537 48.90577531 28.04905537 51.2421875 28.8125 C53 30 53 30 53.60986328 33.07421875 C53.7386084 34.03972656 53.86735352 35.00523437 54 36 C49.85422725 36.05863894 45.70856295 36.09380984 41.5625 36.125 C40.39783203 36.14175781 39.23316406 36.15851563 38.03320312 36.17578125 C26.26801272 36.24206401 17.70956534 33.69263212 7 29 C6.2265625 28.70351562 5.453125 28.40703125 4.65625 28.1015625 C-5.54535873 24.0726663 -13.99050134 16.32633553 -22 9 C-21.67 8.01 -21.34 7.02 -21 6 C-19.37958747 5.49362108 -17.75209829 5.00281996 -16.1015625 4.60546875 C-13.71975531 3.91926036 -11.61139742 2.94084158 -9.375 1.875 C-3.6350052 -0.72700104 -3.6350052 -0.72700104 0 0 Z " fill="#E0F2E9" transform="translate(76,165)"/>
<path d="M0 0 C4.78322758 0.53703902 8.09214629 1.92122207 12.25 4.3125 C16.92953946 6.92285535 21.50972409 9.07963487 26.515625 10.9609375 C30.36773082 12.57203836 33.94009677 14.64918109 37.5546875 16.73046875 C39.74380627 17.86699207 41.59214509 18.53522801 44 19 C44.79953138 22.28696233 45.09658936 23.71023192 44 27 C39.27463993 26.4580422 35.94957829 25.1370975 31.82421875 22.796875 C31.25476028 22.47720764 30.68530182 22.15754028 30.09858704 21.82818604 C28.29002353 20.81047174 26.48874733 19.78059688 24.6875 18.75 C23.49070375 18.07338784 22.29344137 17.39759948 21.09570312 16.72265625 C18.78703911 15.42031462 16.48145571 14.1129907 14.17724609 12.80273438 C10.13304052 10.50809676 6.07059621 8.24741271 2 6 C2 5.34 2 4.68 2 4 C0.68 4 -0.64 4 -2 4 C-1.34 2.68 -0.68 1.36 0 0 Z " fill="#CDDED5" transform="translate(85,156)"/>
<path d="M0 0 C2.3125 1.5 2.3125 1.5 4 3 C3.67 5.31 3.34 7.62 3 10 C2.34 10 1.68 10 1 10 C1 10.66 1 11.32 1 12 C-2.375 12.1875 -2.375 12.1875 -6 12 C-8.31282587 8.53076119 -8.42478586 7.07794425 -8 3 C-5.89743606 -0.3198378 -3.76818826 -0.55144218 0 0 Z " fill="#212F28" transform="translate(132,84)"/>
<path d="M0 0 C1.32 0 2.64 0 4 0 C5.16983345 2.3396669 5.1661241 3.83391527 5.1875 6.4375 C5.20167969 7.21996094 5.21585938 8.00242188 5.23046875 8.80859375 C5 11 5 11 3 14 C1.68 13.34 0.36 12.68 -1 12 C-1.02687279 10.18757948 -1.04633715 8.37504767 -1.0625 6.5625 C-1.07410156 5.55316406 -1.08570313 4.54382813 -1.09765625 3.50390625 C-1 1 -1 1 0 0 Z " fill="#CBDCD3" transform="translate(138,183)"/>
<path d="M0 0 C0.66 0.33 1.32 0.66 2 1 C-11.06930693 16.35643564 -11.06930693 16.35643564 -16 18 C-12.93301662 10.75076657 -6.84814141 5.95998909 -1 1 C-0.67 0.67 -0.34 0.34 0 0 Z " fill="#2C3A33" transform="translate(79,69)"/>
<path d="M0 0 C0.9075 0.309375 1.815 0.61875 2.75 0.9375 C5.16563338 1.7272263 7.52780285 2.42949297 10 3 C12.15908873 9.00754078 12.08010645 14.11607144 11.625 20.4375 C11.56828125 21.35982422 11.5115625 22.28214844 11.453125 23.23242188 C11.31280733 25.48919779 11.16152895 27.74465997 11 30 C10.34 30.33 9.68 30.66 9 31 C9.00523682 30.31897217 9.01047363 29.63794434 9.01586914 28.9362793 C9.03664458 25.85336223 9.04966198 22.7704599 9.0625 19.6875 C9.07087891 18.61564453 9.07925781 17.54378906 9.08789062 16.43945312 C9.09111328 15.41142578 9.09433594 14.38339844 9.09765625 13.32421875 C9.10289307 12.37635498 9.10812988 11.42849121 9.11352539 10.4519043 C9.10498854 7.86161319 9.10498854 7.86161319 8 5 C6.16715557 3.87483915 6.16715557 3.87483915 4 3 C2.66666667 2.33333333 1.33333333 1.66666667 0 1 C0 0.67 0 0.34 0 0 Z " fill="#B2C6BC" transform="translate(184,79)"/>
<path d="M0 0 C0 0.33 0 0.66 0 1 C-1.87387477 1.3396019 -3.74916697 1.67138691 -5.625 2 C-6.66914063 2.185625 -7.71328125 2.37125 -8.7890625 2.5625 C-11.90574865 2.98715797 -14.85930812 3.07545206 -18 3 C-18.226875 3.5775 -18.45375 4.155 -18.6875 4.75 C-20.33038023 7.5663661 -22.39533227 9.08077114 -25 11 C-25 8 -25 8 -22.6875 5.4375 C-15.78031588 -0.82715536 -8.86984408 -0.14204377 0 0 Z " fill="#516058" transform="translate(164,132)"/>
<path d="M0 0 C0.66 0.33 1.32 0.66 2 1 C-6.2095968 10.5344885 -6.2095968 10.5344885 -10 14 C-10.66 14 -11.32 14 -12 14 C-12 14.66 -12 15.32 -12 16 C-12.66 15.67 -13.32 15.34 -14 15 C-9.53648711 9.77674023 -4.9255107 4.79077028 0 0 Z " fill="#C0D1C9" transform="translate(84,77)"/>
<path d="M0 0 C0.66 0 1.32 0 2 0 C1.46324097 3.85103301 -0.11600923 5.31797587 -3.0625 7.75 C-4.16271484 8.67039063 -4.16271484 8.67039063 -5.28515625 9.609375 C-5.85105469 10.06828125 -6.41695312 10.5271875 -7 11 C-7.33 10.01 -7.66 9.02 -8 8 C-6.68 7.67 -5.36 7.34 -4 7 C-4 6.01 -4 5.02 -4 4 C-3.01 4 -2.02 4 -1 4 C-0.67 2.68 -0.34 1.36 0 0 Z " fill="#B7DFCA" transform="translate(181,172)"/>
<path d="M0 0 C0.33 0.66 0.66 1.32 1 2 C-0.1875 5.0625 -0.1875 5.0625 -2 8 C-4.1875 8.875 -4.1875 8.875 -6 9 C-4.47291037 5.56404834 -2.40072955 2.88087546 0 0 Z " fill="#A1C6B2" transform="translate(54,52)"/>
<path d="M0 0 C-0.1875 1.8125 -0.1875 1.8125 -1 4 C-3.4375 5.8125 -3.4375 5.8125 -6 7 C-6.66 6.67 -7.32 6.34 -8 6 C-7.0479279 4.99403703 -6.08812654 3.99538437 -5.125 3 C-4.59132812 2.443125 -4.05765625 1.88625 -3.5078125 1.3125 C-2 0 -2 0 0 0 Z " fill="#9EC5B0" transform="translate(63,45)"/>
<path d="M0 0 C0.66 0 1.32 0 2 0 C1.8125 2.3125 1.8125 2.3125 1 5 C-1.5625 6.8125 -1.5625 6.8125 -4 8 C-2.25 2.25 -2.25 2.25 0 0 Z " fill="#B0DAC4" transform="translate(66,41)"/>
<path d="M0 0 C2.31 0.33 4.62 0.66 7 1 C7 1.99 7 2.98 7 4 C4.69 4 2.38 4 0 4 C0 2.66666667 0 1.33333333 0 0 Z " fill="#55655D" transform="translate(164,128)"/>
</svg>
